<?xml version="1.0" encoding="UTF-8" standalone="no"?>
<!-- Created with Inkscape (http://www.inkscape.org/) -->

<svg
   version="1.1"
   id="svg2"
   xml:space="preserve"
   width="3333.3333"
   height="2133.3333"
   viewBox="0 0 3333.3333 2133.3333"
   sodipodi:docname="vecteezy_background-flatvector2-background_fr0121.eps"
   xmlns:inkscape="http://www.inkscape.org/namespaces/inkscape"
   xmlns:sodipodi="http://sodipodi.sourceforge.net/DTD/sodipodi-0.dtd"
   xmlns="http://www.w3.org/2000/svg"
   xmlns:svg="http://www.w3.org/2000/svg"><defs
     id="defs6" /><sodipodi:namedview
     id="namedview4"
     pagecolor="#ffffff"
     bordercolor="#666666"
     borderopacity="1.0"
     inkscape:pageshadow="2"
     inkscape:pageopacity="0.0"
     inkscape:pagecheckerboard="0" /><g
     id="g8"
     inkscape:groupmode="layer"
     inkscape:label="ink_ext_XXXXXX"
     transform="matrix(1.3333333,0,0,-1.3333333,0,2133.3333)"><g
       id="g10"
       transform="scale(0.1)"><path
         d="M 0,16000 H 25000 V 0 H 0 v 16000"
         style="fill:#1f233b;fill-opacity:1;fill-rule:evenodd;stroke:none"
         id="path12" /><path
         d="M 25000,14145.6 V 12116 C 22610.6,11354.7 18965.9,9880.35 21233.2,8512.27 24471.2,6558.32 18744.4,5758.8 13108.1,5553.9 3929.81,5220.4 21038.3,917.902 24770.7,7478.69 c 90.7,159.51 166.5,281.17 229.3,370.49 V 6653.66 C 24648.2,5321.4 24050.4,3510.4 24050.4,3510.4 L 23316,4541.7 c -968.8,348.8 -567.7,24.7 -1138.8,-358.5 C 19360.4,2293.7 9844.39,1925 6871.79,3449.6 188.684,6877.29 21124.4,7029.76 17108.1,8637.27 13806.8,9958.57 21857.7,13035.8 25000,14145.6"
         style="fill:#2c375f;fill-opacity:1;fill-rule:evenodd;stroke:none"
         id="path14" /><path
         d="m 7200.42,3885 c 688.73,-164.9 853.64,310.4 630.54,717.8 -245.81,448.9 -998.52,603 -1345.8,191.9 -317.47,-375.8 365.88,-826.1 715.26,-909.7"
         style="fill:#1f233b;fill-opacity:1;fill-rule:evenodd;stroke:none"
         id="path16" /><path
         d="m 8139,3612.5 c 88.47,-401 1209.76,-406.1 867.62,-66 -222.69,221.3 -935.18,372.3 -867.62,66"
         style="fill:#1f233b;fill-opacity:1;fill-rule:evenodd;stroke:none"
         id="path18" /><path
         d="m 21137.7,7107.88 c 310.4,149.05 331.8,231.98 361.1,340.05 70.2,259.32 -409.3,440.56 -1043.1,416.18 -1716.7,-65.96 -1767.6,-1267.5 -404.5,-1069.99 442.3,64.09 916,231.9 1086.5,313.76"
         style="fill:#1f233b;fill-opacity:1;fill-rule:evenodd;stroke:none"
         id="path20" /><path
         d="m 18226.6,7063.01 c 0,0 -579.8,-135.34 -500.5,-426.48 79.3,-291.18 1161.3,-12.29 1070.2,240.84 -91.2,253.14 -569.7,185.64 -569.7,185.64"
         style="fill:#1f233b;fill-opacity:1;fill-rule:evenodd;stroke:none"
         id="path22" /><path
         d="m 12313.8,16000 h 1070.1 c -1637.7,-2836.4 9979.9,-548.2 10119.1,0 h 1497 v -508.4 C 21082.9,12946.1 6244.37,11709.7 12313.8,16000"
         style="fill:#2c375f;fill-opacity:1;fill-rule:evenodd;stroke:none"
         id="path24" /><path
         d="m 12365.6,13788.3 c 562.5,31.3 -203.1,765.6 -507.8,773.5 -771.1,19.7 -208.8,-813.3 507.8,-773.5"
         style="fill:#1f233b;fill-opacity:1;fill-rule:evenodd;stroke:none"
         id="path26" /><path
         d="m 16968.3,13789.4 c -415.5,-223.6 -1098.5,-218 -1495.4,-100.7 -555.2,163.9 -630.3,525.5 667.3,600.9 746,43.3 1448.7,-166.1 828.1,-500.2"
         style="fill:#1f233b;fill-opacity:1;fill-rule:evenodd;stroke:none"
         id="path28" /><path
         d="M 5488.35,16000 H 8930.67 C 6950.12,15202.5 6963.14,14165.1 7697.58,13455.1 8211.04,12958.8 14244.6,12043 10308.6,10172.4 7255.34,8721.29 -796.426,7422.71 2191.51,4739.1 4555.79,2615.6 2491.6,1516.1 0,950.402 V 8837.13 C 16283.7,12819.2 -3062.44,11322.2 5488.35,16000"
         style="fill:#2c375f;fill-opacity:1;fill-rule:evenodd;stroke:none"
         id="path30" /><path
         d="m 2478.01,8639.71 c 219.42,-531.5 2228.25,84.73 2148.92,538.55 -74.58,426.74 -2410.98,96.29 -2148.92,-538.55"
         style="fill:#1f233b;fill-opacity:1;fill-rule:evenodd;stroke:none"
         id="path32" /><path
         d="m 4118.92,13516.2 c 0,0 8.75,-18.3 27.51,-47.7 438.57,-686.2 1909.4,-472.9 1314.25,300.8 -597.01,775.9 -1665.49,235.4 -1341.76,-253.1"
         style="fill:#1f233b;fill-opacity:1;fill-rule:evenodd;stroke:none"
         id="path34" /><path
         d="m 9617.8,11650.2 c 0,0 -903.5,-615.1 -422.91,-1057.3 480.59,-442.2 1701.31,192.2 1816.61,682.4 115.3,490.2 -759.3,788.2 -1393.7,374.9"
         style="fill:#1f233b;fill-opacity:1;fill-rule:evenodd;stroke:none"
         id="path36" /><path
         d="m 8123.19,9963.32 c 278.73,-67.27 696.82,100.98 634.37,360.48 -100.39,417 -1101.77,-247.6 -634.37,-360.48"
         style="fill:#1f233b;fill-opacity:1;fill-rule:evenodd;stroke:none"
         id="path38" /><path
         d="m 6165.22,12701.6 c 153.53,259.1 -599.4,499.4 -588.82,141.6 3.86,-130.3 502.06,-288 588.82,-141.6"
         style="fill:#1f233b;fill-opacity:1;fill-rule:evenodd;stroke:none"
         id="path40" /><path
         d="m 17846.7,0 h -4688.6 c -485.7,550.801 -780.6,1273.9 -780.6,2065.9 0,1725.8 1399.1,3124.9 3124.9,3124.9 1725.8,0 3124.8,-1399.1 3124.8,-3124.9 0,-792 -294.8,-1515.099 -780.5,-2065.9"
         style="fill:#eda33d;fill-opacity:1;fill-rule:evenodd;stroke:none"
         id="path42" /><path
         d="m 12602.5,3231.8 c 106.8,265.4 249,512.7 420.7,736.2 243.6,-28.8 510.2,-171.4 891.1,-144.5 392.3,27.6 640,289.6 710,462.8 106.5,263.6 -364.3,236.3 -436.5,91.8 -70.4,-140.6 109.3,-109.3 148.4,-171.8 40.4,-64.7 -408.3,-204.5 -359.5,184.5 24.2,192.6 200.9,406.5 695.4,276.4 7.8,-2 15.3,-4.7 22.6,-7.9 v 0 c 0,0 289.9,-93.7 391.5,-171.8 101.5,-78.1 414,-23.4 515.6,15.6 101.6,39.1 179.7,195.3 46.9,312.5 -132.8,117.2 -289.1,70.3 -312.5,-23.4 -23.5,-93.7 179.7,-148.5 117.2,-210.9 -62.5,-62.5 -320.4,85.9 -343.8,187.5 -23.4,101.5 23.4,249.9 367.2,249.9 343.7,0 718.7,-390.6 1179.7,-499.9 240.3,-57.1 429.6,34.6 582.4,145.3 185.5,-124.3 356.9,-267.9 511.4,-427.8 -419.9,-294.5 -1165.1,-324.1 -1484.4,-100.4 -232.7,163 -1391.1,207.1 -1515.6,-70.3 -12,-26 -26.9,-52.5 -44.3,-79.1 l -0.2,-0.3 v 0.1 c -186.8,-285.1 -674.5,-586.5 -1260.2,-522.2 -374,41 -665.3,-104.3 -843.1,-232.3"
         style="fill:#d5832c;fill-opacity:1;fill-rule:evenodd;stroke:none"
         id="path44" /><path
         d="m 12508.2,1169.2 c -36.9,123.3 -66.4,249.8 -87.9,379 994,719.2 1794.5,-46.2 2728.4,-21.6 593.8,15.6 1338.9,-78.6 70.3,-218.8 -1268.6,-140.1 -2206.7,-307.3 -2710.8,-138.6"
         style="fill:#d5832c;fill-opacity:1;fill-rule:evenodd;stroke:none"
         id="path46" /><path
         d="m 12378.1,2007 c -0.3,19.6 -0.6,39.2 -0.6,58.9 0,73 2.7,145.5 7.7,217.2 299.7,223.8 627.2,426.3 878.8,466.1 593.8,93.7 937.5,-156.3 1531.3,-312.5 593.7,-156.3 937.5,500 843.7,687.5 -115.3,230.5 -596.8,391.2 -687.2,41 -24.4,-94.3 -5.6,-192.9 77.9,-220.7 164,-54.6 351.5,70.3 367.1,15.6 15.7,-54.7 -218.7,-195.3 -453.1,-156.2 -187.1,31.2 -279.6,287.3 -186.1,551.6 154.9,437.5 759.9,428 1238.1,312.9 438.3,-105.4 798.5,-306.5 1252.3,-334.6 443,-27.4 562.2,119 877.4,430.9 110,-169.5 204,-350.4 280,-540.4 -299.6,-46.4 -670.6,-143.2 -743,-342.3 -124.9,-343.7 336,-414.1 453.2,-250 75.5,105.8 52.8,166.8 -9.3,204 -34.2,20.6 -106.3,14.8 -119.5,50.2 -37.2,99.3 279.2,46.6 326.1,-70.6 46.8,-117.2 13.6,-285.2 -103.6,-418 -117.1,-132.8 -664,-164 -929.6,0 -265.7,164.1 -265.7,546.9 -484.5,632.8 -218.7,86 -757.7,156.3 -789,-226.5 -31.3,-382.8 -343.7,-1000 -1382.8,-757.8 -1039.1,242.2 -1187.6,273.4 -1578.2,210.9 -238,-38.1 -499.3,-160.3 -667.1,-250"
         style="fill:#d5832c;fill-opacity:1;fill-rule:evenodd;stroke:none"
         id="path48" /><path
         d="m 19757.7,12653.9 c 21.7,-143.9 117,-374.7 219.3,-402.4 171.1,-46.3 801.4,-14.8 724.2,273.8 -0.1,1.5 -0.5,2.9 -1,4.2 -7,15.4 -308.8,-8.8 -396.8,29.3 -88,38.1 -91,139.8 -91,139.8 0,0 -194.5,-27.3 -454.7,-44.7"
         style="fill:#82d6e0;fill-opacity:1;fill-rule:evenodd;stroke:none"
         id="path50" /><path
         d="m 19757.7,12653.9 c 10,-66.2 35.6,-150.9 70.3,-225.7 0.3,0.2 134.1,118.7 396.9,214.8 -11.8,30.2 -12.5,55.6 -12.5,55.6 0,0 -194.5,-27.3 -454.7,-44.7"
         style="fill:#54a5d9;fill-opacity:1;fill-rule:evenodd;stroke:none"
         id="path52" /><path
         d="m 17444.7,13667.4 c 77.1,122.1 927,315.6 1413.8,348.4 486.7,32.8 1506.1,-618.3 1506.1,-618.3 l -76.2,-349.4 -76,-349.5 c 0,0 -1197.8,-168.2 -1626.9,64.1 -429,232.2 -1121.5,761.7 -1140.8,904.7"
         style="fill:#d80e87;fill-opacity:1;fill-rule:evenodd;stroke:none"
         id="path54" /><path
         d="m 17444.7,13667.4 c 3.4,5.4 8.3,10.8 14.6,16.4 1.8,-1.3 1026.3,-716.6 2815.2,-699.6 l -62.1,-285.6 c 0,0 -1197.8,-168.2 -1626.9,64.1 -429,232.2 -1121.5,761.7 -1140.8,904.7"
         style="fill:#b91276;fill-opacity:1;fill-rule:evenodd;stroke:none"
         id="path56" /><path
         d="m 17444.7,13667.4 c 41,65 300.7,150.1 608.1,220.5 L 17906,13214 c -250.2,191.9 -451,377.4 -461.3,453.4"
         style="fill:#82d6e0;fill-opacity:1;fill-rule:evenodd;stroke:none"
         id="path58" /><path
         d="m 17444.7,13667.4 c 3.4,5.4 8.3,10.9 14.5,16.4 0.3,-0.1 170.4,-119 492.8,-258.7 l -46,-211.1 c -250.2,191.9 -451,377.4 -461.3,453.4"
         style="fill:#54a5d9;fill-opacity:1;fill-rule:evenodd;stroke:none"
         id="path60" /><path
         d="m 20212.4,12698.6 c 0,0 199.8,-16.7 252.4,50.7 50.5,64.8 127.2,417.2 108.2,497.1 -19.7,83.2 -208.4,151.1 -208.4,151.1 l -152.2,-698.9"
         style="fill:#82d6e0;fill-opacity:1;fill-rule:evenodd;stroke:none"
         id="path62" /><path
         d="m 20212.4,12698.6 c 0,0 199.8,-16.7 252.4,50.7 25.2,32.4 57,136.7 80.2,242.9 v 0 c -92,-4.6 -182.2,-7.2 -270.5,-8 l -62.1,-285.6"
         style="fill:#54a5d9;fill-opacity:1;fill-rule:evenodd;stroke:none"
         id="path64" /><path
         d="m 19969.8,13627.3 c 79.5,121.9 262.1,292.2 366.7,274.8 174.9,-29 735,-319.8 544.8,-550.2 -0.8,-1.3 -1.7,-2.3 -2.7,-3.3 -12.8,-11.2 -277.2,136.4 -373.1,138.3 -95.8,2 -140.9,-89.3 -140.9,-89.3 0,0 -165.5,105.7 -394.8,229.7"
         style="fill:#82d6e0;fill-opacity:1;fill-rule:evenodd;stroke:none"
         id="path66" /><path
         d="m 19969.8,13627.3 c 36.6,56.2 95.1,122.5 157.8,176.1 0.1,-0.3 72.5,-163.7 271.6,-360.4 -23.3,-22.6 -34.6,-45.4 -34.6,-45.4 0,0 -165.5,105.7 -394.8,229.7"
         style="fill:#54a5d9;fill-opacity:1;fill-rule:evenodd;stroke:none"
         id="path68" /><path
         d="m 18346.3,13471.1 c 49.2,226.2 272.6,369.7 498.8,320.4 226.3,-49.3 369.7,-272.6 320.5,-498.9 -49.3,-226.2 -272.7,-369.7 -498.9,-320.4 -226.3,49.3 -369.7,272.6 -320.4,498.9"
         style="fill:#ffffff;fill-opacity:1;fill-rule:evenodd;stroke:none"
         id="path70" /><path
         d="m 18478.8,13442.2 c 33.3,153.1 184.4,250.1 337.5,216.8 153.1,-33.3 250.1,-184.4 216.8,-337.5 -33.4,-153.1 -184.5,-250.1 -337.6,-216.8 -153,33.3 -250.1,184.4 -216.7,337.5"
         style="fill:#54a5d9;fill-opacity:1;fill-rule:evenodd;stroke:none"
         id="path72" /><path
         d="m 18478.8,13442.2 c 16.2,74.3 60,135.4 118.5,174.8 38.8,8.6 80.1,9.1 121.5,0.1 153.1,-33.3 250.1,-184.4 216.8,-337.5 -16.2,-74.3 -60.1,-135.4 -118.5,-174.8 -38.9,-8.6 -80.1,-9.1 -121.6,-0.1 -153,33.3 -250.1,184.4 -216.7,337.5"
         style="fill:#82d6e0;fill-opacity:1;fill-rule:evenodd;stroke:none"
         id="path74" /><path
         d="m 19350.6,13252.3 c 37.3,171.4 206.4,280 377.8,242.7 171.3,-37.3 280,-206.5 242.7,-377.8 -37.3,-171.4 -206.5,-280 -377.8,-242.7 -171.4,37.3 -280.1,206.5 -242.7,377.8"
         style="fill:#ffffff;fill-opacity:1;fill-rule:evenodd;stroke:none"
         id="path76" /><path
         d="m 19450.9,13230.5 c 25.3,115.9 139.7,189.4 255.6,164.2 116,-25.3 189.4,-139.7 164.2,-255.6 -25.3,-116 -139.7,-189.5 -255.6,-164.2 -115.9,25.2 -189.4,139.7 -164.2,255.6"
         style="fill:#54a5d9;fill-opacity:1;fill-rule:evenodd;stroke:none"
         id="path78" /><path
         d="m 19450.9,13230.5 c 12.3,56.2 45.6,102.5 89.8,132.4 29.4,6.5 60.7,6.9 92,0 115.9,-25.2 189.4,-139.6 164.2,-255.6 -12.3,-56.2 -45.5,-102.5 -89.8,-132.4 -29.4,-6.5 -60.6,-6.9 -92,0 -115.9,25.2 -189.4,139.7 -164.2,255.6"
         style="fill:#82d6e0;fill-opacity:1;fill-rule:evenodd;stroke:none"
         id="path80" /><path
         d="m 17401,11335.1 c -7.7,-13.4 -17.3,-26 -29,-37.2 -65.2,-62.7 -169,-60.7 -231.7,4.5 -62.8,65.3 -60.8,169.1 4.5,231.8 11.6,11.2 24.6,20.4 38.3,27.5 1171.1,840 1008,788.5 217.9,-226.6"
         style="fill:#59c6a4;fill-opacity:1;fill-rule:evenodd;stroke:none"
         id="path82" /><path
         d="m 8685.29,12680.9 c -8.34,-14.6 -18.9,-28.4 -31.68,-40.7 -71.45,-68.7 -185.04,-66.4 -253.74,5 -68.69,71.4 -66.45,185 4.98,253.7 12.8,12.3 26.94,22.3 41.92,30.1 1282.14,919.6 1103.53,863.3 238.52,-248.1"
         style="fill:#eda33d;fill-opacity:1;fill-rule:evenodd;stroke:none"
         id="path84" /><path
         d="m 19311.9,3730.7 c -10.4,-18.5 -23.7,-35.7 -39.8,-51.2 -89.8,-86.3 -232.6,-83.6 -319,6.3 -86.3,89.8 -83.6,232.5 6.3,318.9 16.1,15.5 33.8,28.1 52.7,37.8 1611.8,1156.2 1387.3,1085.3 299.8,-311.8"
         style="fill:#eda33d;fill-opacity:1;fill-rule:evenodd;stroke:none"
         id="path86" /><path
         d="m 4175.14,4778.2 c -7.62,-13.5 -17.28,-26 -28.94,-37.2 -65.26,-62.8 -169.02,-60.7 -231.77,4.5 -62.76,65.3 -60.71,169 4.54,231.8 11.67,11.2 24.59,20.4 38.29,27.4 1171.16,840.1 1008.01,788.6 217.88,-226.5"
         style="fill:#eda33d;fill-opacity:1;fill-rule:evenodd;stroke:none"
         id="path88" /><path
         d="m 20378,10831.9 c 867,141.3 1684.3,-446.9 1825.7,-1313.86 141.3,-866.96 -447,-1684.33 -1313.9,-1825.64 -867,-141.32 -1684.3,446.9 -1825.6,1313.86 -141.4,866.97 446.9,1684.34 1313.8,1825.64"
         style="fill:#82d6e0;fill-opacity:1;fill-rule:evenodd;stroke:none"
         id="path90" /><path
         d="m 19916.8,10682.2 c 25.3,9.9 42.8,18.4 53.3,25.6 l -0.8,-0.3 -0.8,-0.4 c -6.5,-3 -12.9,-6 -19.3,-9 l -0.8,-0.4 -0.9,-0.4 c -5.6,-2.7 -11.1,-5.4 -16.6,-8.1 l -0.9,-0.4 -0.8,-0.4 -0.8,-0.4 -10.8,-5.4 z m 1516.8,-45.2 c 231.6,-134.8 428.2,-327.3 567.5,-561.4 -1.8,-118.19 -52.9,-225.73 -161.2,-287.46 -498.3,-283.71 -2074.4,299.36 -2795.5,-584.94 -21.5,562.05 256.8,1082.1 707.3,1382.7 -197.8,-176.4 -64.3,-426.7 38,-466.1 123,-47.3 -94.7,123 160.8,435.3 255.4,312.2 756.9,132.4 577.1,141.9 -179.7,9.4 -482.5,-198.7 -444.6,-454.2 37.8,-255.42 750.4,-307.03 662.2,-179.7 -88.2,127.2 160.8,28.3 254.4,-15.9 93.4,-44.2 512,-192.26 578.2,-50.36 66.2,141.96 -43.1,362.76 -227.1,368.96 -183.9,6.3 18.9,-321.6 -160.8,-264.9 -103.4,32.7 -163,165.6 -166.1,277.9 -4.4,156.9 151.9,248.6 340,258.2 23.9,1.2 47.1,1.2 69.8,0 v 0"
         style="fill:#54a5d9;fill-opacity:1;fill-rule:evenodd;stroke:none"
         id="path92" /><path
         d="m 22161,9706.72 c 17.8,-61.24 32.2,-124.16 42.7,-188.68 16.3,-100.5 22.8,-200.32 20.3,-298.5 -440.5,-185.08 -1026.5,-404.93 -1510.8,-495.04 -905.8,-168.47 -1488.2,9.85 -1488.2,9.85 167.2,282.9 329.5,595.07 1517.5,513.69 532.9,-36.54 1307.9,12.56 1418.5,458.68"
         style="fill:#54a5d9;fill-opacity:1;fill-rule:evenodd;stroke:none"
         id="path94" /><path
         d="m 22218.8,9124.98 c -17.4,-202.72 -73.6,-396.92 -162.1,-573.68 -90.1,-39.43 -388.5,-256.49 -367.9,-388.51 14.6,-93.77 4.7,-60.62 0,-91.16 -135.8,-120.49 -293.1,-218.63 -467.1,-287.6 -164.3,49.93 -180,276.11 -89.7,280.21 108.4,4.93 -4.9,-93.61 113.3,-133.03 118.3,-39.43 236.5,133.03 133.1,221.72 -103.5,88.7 -749.4,-58.54 -749.4,-58.54 v 0 c -299.3,-71.43 -589,-129.37 -846.7,-175.39 -249.8,158.53 -454.9,385.84 -585.2,660.34 l 3021.7,545.64"
         style="fill:#54a5d9;fill-opacity:1;fill-rule:evenodd;stroke:none"
         id="path96" /><path
         d="m 22883,9956.05 c 124.5,-29.68 231.1,-66.26 316.7,-109.39 l 0.1,-0.09 c 17.8,-8.95 34.6,-18.16 50.5,-27.66 l 0.9,-0.56 c 5.1,-3.01 10,-6.08 14.9,-9.15 l 1.2,-0.79 c 14.9,-9.5 29,-19.29 42.1,-29.32 l 1.4,-1.04 c 4.1,-3.21 8.2,-6.45 12.1,-9.7 l 0.9,-0.78 c 8.2,-6.69 15.9,-13.53 23.2,-20.44 l 1,-0.96 c 3.5,-3.31 6.9,-6.65 10.2,-10.03 l 1.3,-1.44 c 3.3,-3.4 6.5,-6.82 9.6,-10.28 l 0.6,-0.57 c 3.1,-3.45 6,-6.94 8.9,-10.43 l 0.7,-0.8 c 2.8,-3.45 5.5,-6.98 8.2,-10.5 l 1.2,-1.58 c 2.6,-3.54 5.1,-7.08 7.6,-10.66 l 0.7,-1.04 c 5,-7.38 9.5,-14.88 13.6,-22.48 l 0.9,-1.59 c 2,-3.62 3.8,-7.28 5.6,-10.97 l 0.8,-1.62 c 1.7,-3.7 3.4,-7.41 4.9,-11.15 l 0.6,-1.45 c 1.4,-3.62 2.8,-7.28 4.1,-10.96 l 0.4,-1.02 c 1.3,-3.74 2.4,-7.51 3.5,-11.29 l 0.7,-2.34 c 1,-3.68 2,-7.39 2.8,-11.09 l 0.5,-2.26 c 0.8,-3.9 1.6,-7.85 2.3,-11.8 v 0 c 2,-12.61 2.9,-25.3 2.9,-38.11 8.8,-303.87 -466.1,-594.48 -1142.2,-825.94 -62.4,-22.65 -126.8,-44.86 -193,-66.57 l 1.7,4.25 c -805.8,-249.68 -1836.3,-417.65 -2679.7,-436.81 l 3,-3.5 c -69.9,-0.47 -138,0.16 -204.5,1.83 -714.4,4.77 -1256.9,129.6 -1345,420.45 -4.1,12.13 -7.3,24.48 -9.4,37.07 v 0 c -0.6,3.97 -1.1,7.94 -1.5,11.93 l -0.3,2.27 c -0.4,3.79 -0.7,7.59 -0.9,11.42 l -0.1,2.42 c -0.1,3.95 -0.2,7.89 -0.2,11.86 v 1.06 c 0.1,3.9 0.2,7.81 0.5,11.74 l 0.1,1.52 c 0.2,4.03 0.6,8.08 1.1,12.13 l 0.2,1.81 c 0.5,4.05 1.1,8.09 1.8,12.15 l 0.3,1.8 c 1.5,8.51 3.5,17.07 5.9,25.64 l 0.3,1.24 c 1.1,4.07 2.4,8.18 3.7,12.29 l 0.8,2.24 c 1.4,4.13 2.8,8.28 4.4,12.43 l 0.4,0.93 c 1.6,4.26 3.3,8.51 5.1,12.76 l 0.4,0.72 c 1.8,4.24 3.7,8.52 5.8,12.77 l 0.8,1.83 c 2.1,4.23 4.2,8.46 6.5,12.7 l 0.7,1.26 c 4.6,8.83 9.8,17.7 15.3,26.57 l 0.8,1.24 c 2.7,4.33 5.5,8.66 8.4,13 l 1,1.43 c 9.2,13.62 19.3,27.28 30.4,40.97 l 1.2,1.53 c 3.6,4.39 7.3,8.81 11.1,13.22 l 0.7,0.81 c 12,14.02 24.9,28.02 38.8,42.07 l 0.5,0.47 c 14.1,14.16 29.1,28.34 45,42.55 l 0.3,0.28 c 60.5,53.88 134.3,107.87 220.1,161.32 v -0.04 c 203,126.42 472.9,249.83 791.8,361.79 -35.3,-180.17 -39.8,-369.54 -8.5,-561.36 5.3,-32.45 11.5,-64.51 18.6,-96.15 916.1,-110.17 2299.9,115.4 3133.7,510.83 -3.3,32.28 -7.6,64.65 -12.8,97.1 -31.3,191.81 -95.7,369.94 -186.4,529.56 338,-4.9 633.1,-36.2 865.7,-91.61 v 0.06"
         style="fill:#e67d3e;fill-opacity:1;fill-rule:evenodd;stroke:none"
         id="path98" /><path
         d="m 19055.5,9460.3 c -22.3,-155.84 -7.3,-356.01 8.7,-454.04 15.9,-98 11.5,-64.51 18.6,-96.15 916.1,-110.17 2299.9,115.4 3133.7,510.83 -3.3,32.28 3,-0.05 -12.8,97.1 -15.9,97.15 -61.1,280.05 -130.5,419.54 246.6,-32.82 863.9,-106.2 883.8,-420.78 5.4,-276.83 -502.1,-471.09 -708.8,-546.87 -225.3,-82.66 -459.3,-148.85 -692.3,-206.18 -263.1,-64.74 -529.5,-118.57 -796.6,-163.74 -451,-76.25 -921.7,-133.3 -1379.2,-144.14 -232.1,-5.52 -693.7,-5.76 -893,125.73 -103.2,68.05 -198.5,167.15 -191.8,299.68 15,293.15 529.6,470.48 760.2,579.02"
         style="fill:#ffffff;fill-opacity:1;fill-rule:evenodd;stroke:none"
         id="path100" /><path
         d="m 19049.2,9401 c -11.2,-128.87 -6.8,-261.21 15,-394.74 5.3,-32.45 11.5,-64.51 18.6,-96.15 916.1,-110.17 2299.9,115.4 3133.7,510.83 -3.3,32.28 -7.6,64.65 -12.8,97.1 -21.3,130.53 -57.9,254.72 -107.8,371.08 446.6,-59.41 780.4,-171.55 784.4,-373.83 12.2,-615.78 -3775.7,-1249.26 -4351,-869.7 -476.7,314.53 255,649.75 519.9,755.41"
         style="fill:#e67d3e;fill-opacity:1;fill-rule:evenodd;stroke:none"
         id="path102" /><path
         d="m 0,16000 h 6811.1 c -431.86,-1787.6 -2500.65,-1309.8 -4008.01,-1524.4 -704.25,-122.8 -1107.67,-696.3 -724.19,-1363.9 172.87,-300.9 368.27,-815.5 99.43,-1329.3 C 1761.21,10985.2 0,10750.4 0,10750.4 v 373.8 219.4 4656.4"
         style="fill:#63286d;fill-opacity:1;fill-rule:evenodd;stroke:none"
         id="path104" /><path
         d="m 0,16000 h 4856.94 c 0,0 73.42,-798.7 -1383.35,-868 -113.68,-4.4 -4689.19,-195.5 -2684.402,-1279.2 C 1700.87,13360.1 464.656,12818.6 0,12628 v 3372"
         style="fill:#46234b;fill-opacity:1;fill-rule:evenodd;stroke:none"
         id="path106" /><path
         d="m 5015.79,15321.6 c 93.75,-171.9 1335.94,78.1 929.69,335.9 -510.72,324.2 -992.55,-220.7 -929.69,-335.9"
         style="fill:#46234b;fill-opacity:1;fill-rule:evenodd;stroke:none"
         id="path108" /><path
         d="M 8868.05,816.301 C 9396.06,1235 9942.41,1710.7 10350.2,2158.7 c 289.9,318.2 511.6,624.2 610.5,888.7 105.7,282.4 75.5,519.1 -151,678.6 -244.2,171.9 -727.3,242.8 -1533.83,164.9 C 6731.78,3645.2 4114.28,2925.5 2250.33,2317.8 V 2199 c 1860.05,608.2 4485.74,1333.1 7036.17,1579.4 777.2,75 1235.1,11.9 1458.1,-145 176,-123.9 196.9,-315.1 110.2,-546.6 -93.3,-249.4 -307.2,-543.3 -588.2,-851.9 C 9832.77,1758.5 9243.46,1251 8689.32,816.301 Z m 718.1,0 C 11283.9,2223.7 13971.2,4807.5 10913.4,4879 8118.17,4944.3 4330.83,3800.7 2250.33,3085.1 V 2965.3 C 4315.29,3677.6 8115.91,4831.3 10911.2,4766 13763.1,4699.4 11041,2153 9409.33,816.301 h 176.82 z m -1508.28,0 h -191.12 c 242.02,176 460.75,343.699 656.17,502.199 908,736.2 1309.85,1255.3 1218.22,1456.5 -0.9,2 -1.79,3.7 -2.62,5.3 -133.43,250.5 -1138.35,242.1 -2866.44,-124.9 -1215.21,-258 -2779.71,-697.1 -4641.75,-1353.6 v 119.8 c 1851.26,651.2 3407.63,1087.5 4618.26,1344.6 1782.6,378.5 2833.08,361.2 2989.59,67.3 2.12,-4 4.03,-7.8 5.74,-11.6 112.97,-248 -296.92,-818.6 -1249.7,-1591.1 -162.74,-132 -341.52,-270.3 -536.35,-414.499 v 0"
         style="fill:#2452a7;fill-opacity:1;fill-rule:evenodd;stroke:none"
         id="path110" /><path
         d="m 22134.6,16000 c -153.5,-542.7 -128.7,-1262.7 1083.6,-1262.7 634.1,0 1248.1,88.8 1781.8,205.7 v 115.8 c -532.1,-117.9 -1146.7,-208.1 -1781.8,-208.1 -1089.7,0 -1105.4,656.2 -963.3,1149.3 z m 667.9,0 c -57.2,-135.6 -75.1,-254 -59.2,-356.1 28.8,-184.8 162.6,-312.4 371.9,-389.5 196.3,-72.4 461.7,-99.9 768.5,-88.2 333.3,12.8 717.7,72.1 1116.3,170.4 v 115.8 c -400,-100.1 -786.2,-160.5 -1120.3,-173.2 -292.3,-11.2 -543.1,14.2 -725.6,81.5 -169.7,62.5 -277.5,161.3 -299.2,300.5 -14.5,93 7,205.4 70.8,338.8 h -123.2 z m -1574.2,0 h 117.3 c -183.9,-721.3 26,-1157.7 465,-1388.5 550,-289 1453.9,-269.4 2401.3,-85.6 261.8,50.8 526.6,114.2 788.1,187 v -117.3 c -254.7,-70.3 -512.2,-131.4 -766.8,-180.8 -969.9,-188.2 -1900,-205.7 -2475.3,96.6 -482.2,253.4 -718.2,722.4 -529.6,1488.6 v 0"
         style="fill:#2452a7;fill-opacity:1;fill-rule:evenodd;stroke:none"
         id="path112" /><path
         d="m 19240.9,2919.3 c 5771.3,2629.6 6612,8104.4 1408.6,9859.3 l 0.2,0.3 -12.5,4 c -5.7,1.9 -11,3.9 -16.7,5.8 -2.7,0.9 -6.6,1.9 -11.3,3 l -222.4,69.9 69.8,302.6 c 0,0 2143.3,-28.6 4543.4,-1069 V 0 H 0 v 4653.9 791.3 1765.99 c 181.699,296.64 279.906,325.73 640.258,296.88 585.942,-46.88 828.152,984.4 1375.022,578.15 300.05,-222.88 661.25,-55.38 1075.87,84.45 1126.14,379.8 2564.46,-303.23 2603.68,-1560.91 C 5320.95,7336.77 4670.6,7549.57 3892.56,7281.67 2770.49,6895.32 2468.22,5285 3198.63,4033.9 5437.81,198.102 15473.8,1202.9 19240.9,2919.3"
         style="fill:#d80e87;fill-opacity:1;fill-rule:evenodd;stroke:none"
         id="path114" /><path
         d="M 25000,6685.68 V 3132.3 c -698.2,-1208.6 -1404.7,-2036.2 -1404.7,-2036.2 0,0 -1750,-218.698 -78.2,2031.3 754.9,1015.8 1245.4,2308.9 1482.9,3558.28 z m 0,4907.62 V 8439.83 c 0,2432.67 -1918.3,3886.17 -3648.4,4338.07 l -0.1,0.3 -284.4,74.3 c 1868,-271.9 3113.2,-706.2 3932.9,-1259.2 v 0"
         style="fill:#ea1d99;fill-opacity:1;fill-rule:evenodd;stroke:none"
         id="path116" /><path
         d="M 17169.9,0 H 1591.66 C 905.254,439.699 361.25,982.102 0,1635.3 v 1793 C 358.789,2816 948.652,2041.1 1830.43,1528 3485.8,564.902 4907.68,518 4907.68,518 c 0,0 -859.38,31.199 -2171.88,781.2 -1312.5,750 -1843.749,1796.9 -1843.749,1796.9 0,0 1312.519,-1906.3 5375.029,-2453.198 C 10329.6,96.1016 17032.7,1518 18392.1,2064.9 c 1359.4,546.8 2520.4,895.2 4236.8,2596 1716.3,1700.85 1841.3,3810.22 1841.3,3810.22 0,0 1125.1,-5265.62 -6562.4,-8203.12 -242.3,-92.598 -488.5,-181.8984 -737.9,-268"
         style="fill:#ea1d99;fill-opacity:1;fill-rule:evenodd;stroke:none"
         id="path118" /><path
         d="m 4962.34,1971.1 c 3046.88,-1312.498 7375.06,-843.8 7375.06,-843.8 0,0 -3000.03,-546.898 -5718.78,-281.198 C 4309.74,1071.6 986.777,2175.8 509.238,4861.7 384.238,5564.8 493.613,6174.21 493.613,6174.21 818.152,4118.5 1521.37,4269.1 1883.94,5889.5 2217.08,7378.72 3254.86,7589.29 3254.86,7589.29 1119.2,5895.6 2686.46,2951.4 4962.34,1971.1"
         style="fill:#ea1d99;fill-opacity:1;fill-rule:evenodd;stroke:none"
         id="path120" /><path
         d="m 3113.97,6144.14 c 0,0 109.36,539.06 718.75,890.63 405.87,234.13 766.67,204.91 1015.51,136.19 445.9,-123.18 646.42,-474.5 570.43,-433.07 -85.94,46.88 -304.7,359.38 -531.25,210.94 -226.56,-148.44 -101.56,351.56 -523.44,-31.25 -421.87,-382.81 -500,-23.44 -781.25,-335.94 -281.25,-312.5 -468.75,-640.64 -500,-898.44 -31.26,-257.8 -125,-187.5 31.25,460.94"
         style="fill:#d80e87;fill-opacity:1;fill-rule:evenodd;stroke:none"
         id="path122" /><path
         d="m 22280.8,5241.5 c -723.4,-722 -1472.5,-1162.4 -1518.3,-1171.5 -12.7,-2.6 11,27.5 58.8,79.8 408.3,329.9 923.2,872.9 1034.5,1131.1 7.8,14.9 12.6,27.3 13.7,36.7 10.5,34.5 11.3,61.9 0.5,80.5 -86,148.4 132.8,203.1 62.5,378.9 -37.8,94.5 -35,129.2 51.6,184.1 571.7,173.92 704.3,289.68 855.9,889.38 94.4,373.01 392.8,530.4 598.3,948.07 347.2,705.45 407.6,1293.42 407.7,1295.38 18,114.38 37.7,234.05 50.2,69.6 40.9,-541.06 15.6,-2294.33 -1615.4,-3922.03"
         style="fill:#d80e87;fill-opacity:1;fill-rule:evenodd;stroke:none"
         id="path124" /><path
         d="m 10577.1,1569.9 c 45.7,-34.6 -1596.81,16.1 -3004.36,278.4 -1133.75,211.3 -2459.78,664.4 -3396.1,1366.3 -205.49,154.1 -278.81,242.9 -220.87,204.9 113.28,-74.2 974.61,-537.1 1287.11,-586 289.25,-45.2 240.1,26.5 427.49,79.2 l 0.09,0.2 v -0.1 c 71.44,20 154.35,-7.3 284.09,-148.6 351.57,-382.8 882.82,-218.7 921.88,-390.6 11.98,-52.8 -71.25,-44.8 -103.17,-81.8 -12.53,-14.6 -18.08,-35.2 7.93,-60.5 47.92,-46.5 509.39,-148.3 595.24,-170.2 1285.3,-327.9 2717.57,-435.5 3147.57,-467.9 91,-6.8 53.1,-23.3 53.1,-23.3"
         style="fill:#d80e87;fill-opacity:1;fill-rule:evenodd;stroke:none"
         id="path126" /><path
         d="m 17947.4,10547.1 c -1,-24.3 19.3,-48.9 73.6,-56.6 109.4,-15.6 168,-62.6 199.3,-121.1 47.7,-89.5 51.6,-233.4 117.1,-233.4 68.5,0 69.5,143.9 117.2,233.4 31.2,58.5 62.3,105.3 199.2,121.1 68,7.8 94.4,32.4 93.2,56.6 1.2,24.2 -25.2,48.8 -93.2,56.6 -136.9,15.8 -168,62.5 -199.2,121.1 -47.7,89.5 -48.7,233.4 -117.2,233.4 -65.5,0 -69.4,-143.9 -117.1,-233.4 -31.3,-58.6 -89.9,-105.5 -199.3,-121.1 -54.3,-7.7 -74.6,-32.3 -73.6,-56.6"
         style="fill:#ffffff;fill-opacity:1;fill-rule:evenodd;stroke:none"
         id="path128" /><path
         d="m 18822.4,10970.4 c -0.6,-14.7 11.7,-29.6 44.7,-34.3 66.4,-9.5 102.1,-38 121,-73.6 29,-54.3 31.3,-141.7 71.1,-141.7 41.6,0 42.2,87.4 71.2,141.7 18.9,35.6 37.8,64 120.9,73.6 41.3,4.7 57.3,19.6 56.6,34.3 0.7,14.8 -15.3,29.7 -56.6,34.4 -83.1,9.6 -102,38 -120.9,73.5 -29,54.4 -29.6,141.7 -71.2,141.7 -39.8,0 -42.1,-87.3 -71.1,-141.7 -18.9,-35.5 -54.6,-64 -121,-73.5 -33,-4.7 -45.3,-19.6 -44.7,-34.4"
         style="fill:#ffffff;fill-opacity:1;fill-rule:evenodd;stroke:none"
         id="path130" /><path
         d="m 4473.64,12479.9 c -0.9,-22.5 17.9,-45.2 68.15,-52.4 101.2,-14.5 155.44,-57.8 184.33,-112.1 44.15,-82.7 47.77,-215.9 108.42,-215.9 63.35,0 64.27,133.2 108.42,215.9 28.89,54.3 57.62,97.5 184.33,112.1 62.84,7.2 87.31,30 86.2,52.4 1.11,22.4 -23.36,45.1 -86.2,52.4 -126.71,14.5 -155.44,57.8 -184.33,112 -44.15,82.8 -45.07,216 -108.42,216 -60.65,0 -64.27,-133.2 -108.42,-216 -28.89,-54.2 -83.13,-97.6 -184.33,-112 -50.25,-7.2 -69.05,-30 -68.15,-52.4"
         style="fill:#ffffff;fill-opacity:1;fill-rule:evenodd;stroke:none"
         id="path132" /><path
         d="m 12923.3,5253.1 c -0.9,-24.3 19.4,-48.9 73.7,-56.6 109.4,-15.7 168,-62.6 199.2,-121.2 47.7,-89.4 51.6,-233.3 117.2,-233.3 68.4,0 69.4,143.9 117.2,233.3 31.2,58.6 62.2,105.4 199.2,121.2 67.9,7.7 94.4,32.4 93.2,56.6 1.2,24.2 -25.3,48.8 -93.2,56.6 -137,15.7 -168,62.5 -199.2,121.1 -47.8,89.5 -48.8,233.4 -117.2,233.4 -65.6,0 -69.5,-143.9 -117.2,-233.4 -31.2,-58.6 -89.8,-105.5 -199.2,-121.1 -54.3,-7.8 -74.6,-32.4 -73.7,-56.6"
         style="fill:#ffffff;fill-opacity:1;fill-rule:evenodd;stroke:none"
         id="path134" /><path
         d="m 1262.78,12976.5 c -0.59,-14.7 11.74,-29.7 44.72,-34.4 66.41,-9.5 102.01,-38 120.95,-73.5 28.97,-54.3 31.35,-141.7 71.14,-141.7 41.57,0 42.18,87.4 71.15,141.7 18.96,35.5 37.8,63.9 120.95,73.5 41.26,4.7 57.31,19.7 56.58,34.4 0.73,14.7 -15.32,29.6 -56.58,34.3 -83.15,9.6 -101.99,38 -120.95,73.6 -28.97,54.3 -29.58,141.7 -71.15,141.7 -39.79,0 -42.17,-87.4 -71.14,-141.7 -18.94,-35.6 -54.54,-64.1 -120.95,-73.6 -32.98,-4.7 -45.31,-19.6 -44.72,-34.3"
         style="fill:#ffffff;fill-opacity:1;fill-rule:evenodd;stroke:none"
         id="path136" /><path
         d="m 17922.7,16000 c 1.2,-28.1 1.9,-56.3 1.9,-84.7 0,-1054.3 -854.7,-1909 -1909,-1909 -1054.3,0 -1909,854.7 -1909,1909 0,28.4 0.8,56.6 2,84.7 h 3814.1"
         style="fill:#f03c64;fill-opacity:1;fill-rule:evenodd;stroke:none"
         id="path138" /><path
         d="m 17471.8,14680.9 c -350.2,-412.6 -872.6,-674.6 -1456.2,-674.6 -128.5,0 -254.1,12.8 -375.4,37 32.4,25 82.7,50.8 160.5,72.4 238.2,66.5 437.5,-113.2 476.5,78.2 39.1,191.4 328.1,66.4 351.6,160.1 23.4,93.8 -316.4,78.2 -261.7,128.9 54.6,50.8 433.6,199.3 785.1,160.2 110.8,-12.3 220.8,6.4 319.6,37.8"
         style="fill:#e82647;fill-opacity:1;fill-rule:evenodd;stroke:none"
         id="path140" /><path
         d="m 17923.1,15989.6 c 1,-24.7 1.5,-49.4 1.5,-74.3 0,-66.9 -3.4,-133.1 -10.2,-198.3 -120.9,-103.2 -272.7,-196.6 -430.2,-202.8 -360.8,-14.3 -417.9,-43 -722.6,-43 -304.7,0 -15.6,78.1 277.3,144.5 293,66.4 261.8,148.5 515.7,160.2 141.2,6.5 276.3,116.9 368.5,213.7"
         style="fill:#e82647;fill-opacity:1;fill-rule:evenodd;stroke:none"
         id="path142" /><path
         d="m 17897,15590.5 c -22,-128.2 -56.6,-251.9 -102.8,-370 -44,-55.1 -97.5,-109.7 -161.4,-155.6 -234.4,-168 -1085.9,-203.1 -1339.8,-347.6 -254,-144.6 -82.1,-183.6 -375,-222.7 -293,-39.1 -144.6,136.7 -632.9,62.5 -213.5,-32.5 -357.6,-88.1 -452.1,-140.4 -232.9,184.1 -421.8,421.3 -548.6,693.4 24,-16.1 48.9,-32.5 74.9,-49.1 507.8,-324.2 742.2,-113.3 1195.3,-101.6 453.1,11.8 175.8,4 461,43.8 285.3,39.7 -66.5,245.3 -207.1,303.9 -11.1,4.6 -21.8,10.1 -32.1,16.2 -52.3,25.4 -160.6,73.5 -264.8,93.2 -144.5,27.4 -168,-42.9 -671.9,-58.6 -273.7,-8.5 -511.7,43 -675.8,91.8 -37.3,149 -57.3,305 -57.3,465.6 0,17.1 0.3,34 0.8,51 153.7,-123.4 411.4,-295.3 599.5,-241.2 285.2,82.1 242.2,-11.7 601.6,-93.7 124.7,-28.5 294.8,-18 335.9,124.9 12.1,41.9 31,81 56.4,116.6 v 0 0 c 36.1,50.6 85.3,93.9 146.9,127.1 h 646.6 c 139.2,-89.5 150.5,-241.8 111.1,-337.4 -54.7,-132.8 -289,-148.5 -308.6,-89.9 -19.5,58.6 101.6,-15.6 164.1,74.3 62.5,89.8 -66.5,214.8 -265.7,214.8 -199.2,0 -257.7,-230.5 -89.8,-414.1 167.9,-183.6 531.3,-125 1160.2,-121.1 373.2,2.4 546.9,146.4 631.4,263.9"
         style="fill:#e82647;fill-opacity:1;fill-rule:evenodd;stroke:none"
         id="path144" /><path
         d="m 7309.03,1165.5 c 47.58,14.9 159.87,78.2 93.65,-23.5 -21.65,-33.3 -70.77,-72.3 -107.32,-93.7 -67.06,-39.3 -52.52,96.4 13.67,117.2"
         style="fill:#ffffff;fill-opacity:1;fill-rule:evenodd;stroke:none"
         id="path146" /><path
         d="m 7684.38,1987.2 c -103.2,23.3 -206.04,47.9 -307.95,73.9 -40.14,10.2 -162.33,37.9 -286.01,69.3 114.48,36.6 219.14,69.8 302.59,95.6 429.69,132.8 234.35,117.2 687.48,203.1 87.43,16.6 835.54,54.3 867.99,-43.1 11.72,-35.1 -47.43,-251.8 -126.41,-382.4 l -0.39,-0.5 C 8776.9,1914.1 8704.6,1811.5 8600.17,1694.3 8307.32,1365.7 8228.93,1265.1 7853.95,952.602 7694.12,819.398 7306.38,630.5 7003.81,453.301 6596.42,214.699 6412.52,0 6412.52,0 h -566.41 c -33.81,0 139.92,132.301 321.54,328.5 345.38,372.902 744.22,553.699 982.62,680.7 28.67,15.3 55.61,1.2 40.76,-21.399 -62.24,-94.5 -453.68,-443.699 -472.28,-458.5 -149.83,-119.5 1785.06,802.299 1900.83,1516.999 37.47,231.3 -562.49,218.8 -935.2,-59.1 z m -697.51,-220.3 c 158.62,20.3 325.43,52.6 468.86,104 -220.82,43.9 -448.03,96.8 -677.49,158.7 -124.4,-40.4 -248.78,-81 -361.35,-117.9 185.47,-52.6 375.64,-100.8 569.98,-144.8 v 0"
         style="fill:#ffffff;fill-opacity:1;fill-rule:evenodd;stroke:none"
         id="path148" /><path
         d="m 9248.69,2670.4 c 0,0 -89.85,-74.2 -148.47,-103.5 -58.57,-29.3 -128.88,-84 -19.51,-91.8 109.38,-7.8 250.01,9.7 285.16,93.7 35.16,84 27.37,181.3 -117.18,101.6"
         style="fill:#ffffff;fill-opacity:1;fill-rule:evenodd;stroke:none"
         id="path150" /><path
         d="m 24180.7,12271.4 c 0,0 26.4,-4.8 253.9,44 227.5,48.8 328.1,77.1 328.1,38.1 0,-27.5 25,-95.3 -2,-157.6 48.3,-19.8 96.7,-39.9 145.3,-60.4 18.7,110.9 19.3,265.2 -33.9,311.7 -10.1,8.9 10.8,56.2 6,72 -4.1,14 -33.8,-3.3 -42.2,2.4 -10.3,7 -38.1,-16.8 -50.9,-13.4 -37.9,10 -91.1,1.3 -186.4,-45.3 -109.3,-53.5 -274.3,-129.3 -384.4,-172.6 -9.3,-4.7 -26.8,-10.4 -33.5,-18.9"
         style="fill:#ffffff;fill-opacity:1;fill-rule:evenodd;stroke:none"
         id="path152" /><path
         d="m 22024,11122.5 c -20.8,-41.5 35.1,-42 87.9,-38.1 52.7,3.9 117.1,31.3 107.4,48.8 -19,34.3 -174.6,30.8 -195.3,-10.7"
         style="fill:#ffffff;fill-opacity:1;fill-rule:evenodd;stroke:none"
         id="path154" /><path
         d="m 23197.7,11172.4 c -105.8,-22.6 -154.5,-55.6 -460.4,13.1 -306,68.7 7.4,272.6 93.3,366.4 85.9,93.7 410.1,250 652.3,453.1 242.2,203.1 680.1,239.1 547.3,239.1 -132.8,0 -648.4,-121.1 -820.3,-175.8 -323.7,-102.9 -578.2,-401 -711,-684.7 -25.2,-53.8 -191.4,-161.4 -204.1,-228.4 -4.2,-21.7 44.5,-42.6 71.2,-51.5 296.6,-98.9 317,-98 636.9,-168.2 162.1,-35.6 294.2,-39.1 401.2,-24.6 -64.3,88.9 -133.1,176.1 -206.4,261.5"
         style="fill:#ffffff;fill-opacity:1;fill-rule:evenodd;stroke:none"
         id="path156" /><path
         d="m 20989.2,6293.84 c -45.2,17.2 -213.9,42.64 -191.4,-39.06 27,-98.11 306.2,25.55 191.4,39.06"
         style="fill:#ffffff;fill-opacity:1;fill-rule:evenodd;stroke:none"
         id="path158" /><path
         d="m 25000,6790.99 c -108.4,-27.06 -221.1,-58.75 -302.1,-67.1 -518.1,-53.18 -1040,86.06 -1599.5,71.49 -92.1,-2.4 -450.8,-36.78 -811.9,-106.81 0,0 -207.5,-13.02 -363.7,-102.87 -156.3,-89.84 -222.7,-101.56 -336,-164.06 -78.1,-43.09 -332.8,-74.01 -418.3,-106.2 -38.5,-14.48 -24.7,-46.43 23.8,-50.05 85.8,-6.43 136.4,-186.28 254,-202.79 31.2,-4.36 78.4,16.19 110.6,-7.78 148.4,-110.42 326.5,-339.92 384.3,-386.92 8.3,31.3 8.2,66.7 -8.7,109.1 -37.8,94.5 -35,129.2 51.6,184.1 25.7,7.8 50.5,15.5 74.4,23.1 -70.1,80.92 -104.2,139.27 -77.2,156.19 125.1,78.13 1178,535.65 1734.4,492.19 273.9,-21.4 450.4,-80.32 712.9,-87.52 160.8,-4.4 407.7,44.72 571.4,33.41 z M 22689.2,5393.5 c -47,40.2 -96.1,82.8 -145.7,126.4 -53.1,-59.8 -108.2,-119.6 -165.5,-179.2 56.1,-39.3 111,-77 163.5,-112.5 50.5,54.8 99.7,109.9 147.7,165.3 v 0"
         style="fill:#ffffff;fill-opacity:1;fill-rule:evenodd;stroke:none"
         id="path160" /><path
         d="m 2580.85,12770.1 c 1109.14,0 2008.27,-899.1 2008.27,-2008.2 0,-1109.19 -899.13,-2008.31 -2008.27,-2008.31 -1109.15,0 -2008.284,899.12 -2008.284,2008.31 0,1109.1 899.134,2008.2 2008.284,2008.2"
         style="fill:#59c6a4;fill-opacity:1;fill-rule:evenodd;stroke:none"
         id="path162" /><path
         d="m 806.887,11703.8 c 178.258,335 448.523,613.6 777.223,801.9 86.1,-159.5 160.18,-367.7 90.41,-432.1 -101.5,-93.7 -382.64,-257.7 -78.08,-359.2 304.55,-101.5 531,-23.4 476.33,-218.7 -54.66,-195.2 -491.96,-242 -359.21,-374.8 132.78,-132.8 -39.04,-476.3 -249.9,-257.7 -210.81,218.7 15.65,695 -187.39,695 -203.03,0 -309.614,-58.5 -374.84,70.3 -16.762,33.1 -51.801,57.4 -94.543,75.3"
         style="fill:#78d1bd;fill-opacity:1;fill-rule:evenodd;stroke:none"
         id="path164" /><path
         d="m 2694.3,12766.9 c 657.57,-36.7 1230.65,-389.7 1569.68,-909.3 -20.08,-123.9 -54.75,-270 -114.03,-377.5 -124.94,-226.4 179.6,-62.5 187.41,-390.4 7.8,-328 -62.45,-382.7 -359.21,-85.9 -296.75,296.7 -93.71,-62.5 -218.65,-257.7 -124.95,-195.3 -476.34,-31.3 -406.04,351.4 70.27,382.6 0,312.3 -265.53,203 -265.5,-109.3 -304.54,46.9 -437.3,273.3 -132.74,226.5 312.37,-46.9 398.29,85.9 85.87,132.8 156.16,-78.1 374.81,-46.8 218.65,31.2 85.9,171.8 85.9,171.8 0,0 -257.7,109.3 -484.15,210.8 -226.47,101.5 171.79,203 0,382.6 -95.93,100.3 -230.76,263.9 -331.18,388.8"
         style="fill:#78d1bd;fill-opacity:1;fill-rule:evenodd;stroke:none"
         id="path166" /><path
         d="m 2696.98,8757.01 c -38.45,-2.2 -77.15,-3.42 -116.13,-3.42 -637.61,0 -1205.72,297.19 -1573.62,760.53 5.37,5.04 10.69,10.19 16,15.52 55.81,55.95 15.1,356.99 258.26,471.26 191.69,90.1 666.28,-3.79 772.53,41.8 242.06,-28.5 -70.29,-94.99 -203.04,-285.03 -132.76,-190.05 210.83,-788.64 246.92,-186.1 36.07,602.53 409.04,81.58 487.12,366.64 78.09,285.09 281.13,-228.05 117.13,-513.08 -137.7,-239.38 -71.67,-284.49 -5.17,-668.12"
         style="fill:#78d1bd;fill-opacity:1;fill-rule:evenodd;stroke:none"
         id="path168" /><path
         d="m 3392.5,10207.3 c 31.23,-257.74 -210.83,-374.89 0,-429.53 210.83,-54.67 159.71,140.7 321.94,335.83 380.23,457.4 -367.43,469 -321.94,93.7"
         style="fill:#78d1bd;fill-opacity:1;fill-rule:evenodd;stroke:none"
         id="path170" /><path
         d="m 2127.52,10749.9 c 0,0 -119.07,15.7 -183.51,64.5 -64.41,48.8 -175.7,54.6 -136.66,-44.9 39.05,-99.6 82,-152.3 240.14,-142.6 158.12,9.8 189.35,101.6 80.03,123"
         style="fill:#78d1bd;fill-opacity:1;fill-rule:evenodd;stroke:none"
         id="path172" /><path
         d="M 25000,3407.4 V 0 H 14277.8 c 521.1,1852 3615.3,-791.898 6245.5,2019.9 1355.9,1449.4 3081.7,1595.2 4476.7,1387.5"
         style="fill:#63286d;fill-opacity:1;fill-rule:evenodd;stroke:none"
         id="path174" /><path
         d="M 25000,3098.2 V 0 h -9669.5 c 196.6,243 716.7,486 2064.2,346.898 2421.9,-249.9996 3734.4,484.403 5734.5,296.903 2000,-187.5 1203,890.599 -750,859.399 -1953.2,-31.3 -1297,515.6 187.5,1093.7 896.2,349.1 1832.2,464.6 2433.3,501.3"
         style="fill:#46234b;fill-opacity:1;fill-rule:evenodd;stroke:none"
         id="path176" /><path
         d="m 20712.6,1696.6 c 0,0 -278.2,-93.3 -312.5,-270.4 -34.4,-177 566.6,-72.7 583.9,143 17.3,215.7 -271.4,127.4 -271.4,127.4"
         style="fill:#46234b;fill-opacity:1;fill-rule:evenodd;stroke:none"
         id="path178" /><path
         d="m 6925.95,7931.01 c 198.46,0 359.37,-160.89 359.37,-359.38 0,-198.49 -160.91,-359.37 -359.37,-359.37 -198.49,0 -359.38,160.88 -359.38,359.37 0,198.49 160.89,359.38 359.38,359.38"
         style="fill:#eda33d;fill-opacity:1;fill-rule:evenodd;stroke:none"
         id="path180" /><path
         d="m 18420.6,5428.2 c 198.5,0 359.3,-160.9 359.3,-359.4 0,-198.5 -160.8,-359.4 -359.3,-359.4 -198.5,0 -359.4,160.9 -359.4,359.4 0,198.5 160.9,359.4 359.4,359.4"
         style="fill:#2c375f;fill-opacity:1;fill-rule:evenodd;stroke:none"
         id="path182" /><path
         d="m 8691.92,14916.7 c 169.42,0 306.74,-137.4 306.74,-306.8 0,-169.4 -137.32,-306.7 -306.74,-306.7 -169.39,0 -306.72,137.3 -306.72,306.7 0,169.4 137.33,306.8 306.72,306.8"
         style="fill:#59c6a4;fill-opacity:1;fill-rule:evenodd;stroke:none"
         id="path184" /><path
         d="m 6858.06,6717.26 c 99.24,0 179.68,-80.44 179.68,-179.69 0,-99.24 -80.44,-179.69 -179.68,-179.69 -99.24,0 -179.69,80.45 -179.69,179.69 0,99.25 80.45,179.69 179.69,179.69"
         style="fill:#2c375f;fill-opacity:1;fill-rule:evenodd;stroke:none"
         id="path186" /><path
         d="m 19936.2,5771.9 c 99.2,0 179.7,-80.4 179.7,-179.6 0,-99.3 -80.5,-179.7 -179.7,-179.7 -99.2,0 -179.7,80.4 -179.7,179.7 0,99.2 80.5,179.6 179.7,179.6"
         style="fill:#59c6a4;fill-opacity:1;fill-rule:evenodd;stroke:none"
         id="path188" /><path
         d="m 9998.66,14436 c 99.24,0 179.64,-80.4 179.64,-179.6 0,-99.3 -80.4,-179.7 -179.64,-179.7 -99.22,0 -179.69,80.4 -179.69,179.7 0,99.2 80.47,179.6 179.69,179.6"
         style="fill:#2c375f;fill-opacity:1;fill-rule:evenodd;stroke:none"
         id="path190" /><path
         d="m 5670.56,11482.9 c 133.81,0 242.27,-108.4 242.27,-242.2 0,-133.8 -108.46,-242.3 -242.27,-242.3 -133.77,0 -242.25,108.5 -242.25,242.3 0,133.8 108.48,242.2 242.25,242.2"
         style="fill:#e82647;fill-opacity:1;fill-rule:evenodd;stroke:none"
         id="path192" /><path
         d="m 23339.7,14032.2 c 198.5,0 359.4,-160.9 359.4,-359.3 0,-198.5 -160.9,-359.4 -359.4,-359.4 -198.5,0 -359.4,160.9 -359.4,359.4 0,198.4 160.9,359.3 359.4,359.3"
         style="fill:#eda33d;fill-opacity:1;fill-rule:evenodd;stroke:none"
         id="path194" /><path
         d="m 22800.5,1733.2 c 169.4,0 306.8,-137.3 306.8,-306.7 0,-169.4 -137.4,-306.7 -306.8,-306.7 -169.4,0 -306.7,137.3 -306.7,306.7 0,169.4 137.3,306.7 306.7,306.7"
         style="fill:#78d1bd;fill-opacity:1;fill-rule:evenodd;stroke:none"
         id="path196" /><path
         d="m 20274.9,15272.7 c 99.2,0 179.7,-80.4 179.7,-179.7 0,-99.2 -80.5,-179.7 -179.7,-179.7 -99.2,0 -179.7,80.5 -179.7,179.7 0,99.3 80.5,179.7 179.7,179.7"
         style="fill:#ea1d99;fill-opacity:1;fill-rule:evenodd;stroke:none"
         id="path198" /><path
         d="m 1643.27,15170.4 c 153.18,0 277.35,-124.2 277.35,-277.3 0,-153.2 -124.17,-277.3 -277.35,-277.3 -153.15,0 -277.32,124.1 -277.32,277.3 0,153.1 124.17,277.3 277.32,277.3"
         style="fill:#eda33d;fill-opacity:1;fill-rule:evenodd;stroke:none"
         id="path200" /><path
         d="m 17490.9,1389.1 c 99.3,0 179.7,-80.4 179.7,-179.7 0,-99.2 -80.4,-179.6 -179.7,-179.6 -99.2,0 -179.7,80.4 -179.7,179.6 0,99.3 80.5,179.7 179.7,179.7"
         style="fill:#ffffff;fill-opacity:1;fill-rule:evenodd;stroke:none"
         id="path202" /><path
         d="m 15444.4,13421.5 c 120.8,0 218.8,-97.9 218.8,-218.7 0,-120.9 -98,-218.8 -218.8,-218.8 -120.8,0 -218.7,97.9 -218.7,218.8 0,120.8 97.9,218.7 218.7,218.7"
         style="fill:#eda33d;fill-opacity:1;fill-rule:evenodd;stroke:none"
         id="path204" /><path
         d="m 6944.06,13607.9 c 69.03,0 125,-56 125,-125 0,-69.1 -55.97,-125 -125,-125 -69.03,0 -125,55.9 -125,125 0,69 55.97,125 125,125"
         style="fill:#ffffff;fill-opacity:1;fill-rule:evenodd;stroke:none"
         id="path206" /><path
         d="m 22233.2,13818.8 c 69,0 125,-56 125,-125 0,-69 -56,-125 -125,-125 -69.1,0 -125,56 -125,125 0,69 55.9,125 125,125"
         style="fill:#ffffff;fill-opacity:1;fill-rule:evenodd;stroke:none"
         id="path208" /><path
         d="m 17387.9,5958.3 c 69,0 125,-56 125,-125 0,-69 -56,-125 -125,-125 -69.1,0 -125.1,56 -125.1,125 0,69 56,125 125.1,125"
         style="fill:#ffffff;fill-opacity:1;fill-rule:evenodd;stroke:none"
         id="path210" /><path
         d="m 6069.08,8350.05 c 69.01,0 124.98,-55.97 124.98,-124.98 0,-69.03 -55.97,-125.02 -124.98,-125.02 -69.05,0 -125.03,55.99 -125.03,125.02 0,69.01 55.98,124.98 125.03,124.98"
         style="fill:#ffffff;fill-opacity:1;fill-rule:evenodd;stroke:none"
         id="path212" /><path
         d="m 16858.2,12592.3 c 69,0 125,-56 125,-125.1 0,-69 -56,-125 -125,-125 -69.1,0 -125.1,56 -125.1,125 0,69.1 56,125.1 125.1,125.1"
         style="fill:#ffffff;fill-opacity:1;fill-rule:evenodd;stroke:none"
         id="path214" /><path
         d="m 2678.45,13475 c 69.03,0 125,-56 125,-125 0,-69 -55.97,-125 -125,-125 -69.03,0 -125,56 -125,125 0,69 55.97,125 125,125"
         style="fill:#2c375f;fill-opacity:1;fill-rule:evenodd;stroke:none"
         id="path216" /></g></g></svg>
